<?xml version="1.0" encoding="utf-8"?>
<!-- Generator: Adobe Illustrator 19.0.0, SVG Export Plug-In . SVG Version: 6.00 Build 0)  -->
<svg version="1.1" id="Layer_1" xmlns="http://www.w3.org/2000/svg" xmlns:xlink="http://www.w3.org/1999/xlink" x="0px" y="0px"
	 viewBox="0 0 150 150" style="enable-background:new 0 0 150 150;" xml:space="preserve">
<style type="text/css">
	.st0{fill:#FFFFFF;}
</style>
<g id="XMLID_168_">
	<path id="XMLID_169_" class="st0" d="M124.6,39.7L80.5,14c-3.4-2-7.7-2-11.1,0L25.4,39.7c-3.4,2-5.5,5.6-5.5,9.5v51.5
		c0,3.9,2.1,7.5,5.5,9.5L69.5,136c3.4,2,7.7,2,11.1,0l44.1-25.7c3.4-2,5.5-5.6,5.5-9.5V49.3C130.1,45.3,128,41.7,124.6,39.7z
		 M75,108.5c-18.5,0-33.6-15-33.6-33.5s15-33.5,33.6-33.5c17.8,0,32.4,13.8,33.5,31.3C83.8,72.5,78.3,66.7,75,54.9
		C71.3,68.3,68.3,71.3,54.9,75c13.4,3.7,16.4,6.7,20.1,20.1c3.3-11.8,8.7-17.7,33.5-17.9C107.4,94.7,92.8,108.5,75,108.5z"/>
</g>
</svg>
