<?xml version="1.0" encoding="utf-8"?>
<!-- Generator: Adobe Illustrator 19.0.0, SVG Export Plug-In . SVG Version: 6.00 Build 0)  -->
<svg version="1.1" id="Layer_1" xmlns="http://www.w3.org/2000/svg" xmlns:xlink="http://www.w3.org/1999/xlink" x="0px" y="0px"
	 viewBox="0 0 500 150" style="enable-background:new 0 0 500 150;" xml:space="preserve">
<style type="text/css">
	.st0{fill:#FFFFFF;}
</style>
<g id="XMLID_168_">
	<g id="XMLID_173_">
		<path id="XMLID_190_" class="st0" d="M174.3,55.8c-2.6-1.1-5.3-1.6-8.1-1.6c-3.8,0-7.3,0.9-10.6,2.8c-3.2,1.8-5.7,4.4-7.6,7.6
			c-1.9,3.2-2.8,6.7-2.8,10.5s0.9,7.3,2.8,10.4c1.9,3.2,4.4,5.7,7.6,7.6c3.2,1.9,6.7,2.8,10.6,2.8c2.7,0,5.4-0.5,8-1.6
			c2.6-1,4.9-2.5,7-4.4l3,3.2c-2.4,2.3-5.3,4.1-8.5,5.4c-3.2,1.3-6.4,2-9.7,2c-4.7,0-9-1.1-12.9-3.4c-3.9-2.3-7-5.3-9.3-9.2
			c-2.3-3.9-3.4-8.1-3.4-12.7s1.1-8.8,3.5-12.7s5.4-6.9,9.4-9.1c3.9-2.2,8.3-3.4,13-3.4c3.3,0,6.6,0.6,9.7,1.9
			c3.1,1.2,5.9,3,8.2,5.2l-2.9,3.4C179.3,58.4,176.9,56.9,174.3,55.8z"/>
		<path id="XMLID_186_" class="st0" d="M227.8,53.2c3.9,2.2,7.1,5.3,9.4,9.1c2.3,3.8,3.5,8.1,3.5,12.7s-1.1,8.8-3.5,12.7
			c-2.3,3.9-5.4,7-9.4,9.2c-3.9,2.3-8.3,3.4-13,3.4c-4.7,0-9.1-1.1-13-3.4c-3.9-2.3-7.1-5.3-9.4-9.2c-2.3-3.9-3.5-8.1-3.5-12.7
			s1.1-8.8,3.5-12.7c2.3-3.8,5.4-6.9,9.4-9.1c3.9-2.2,8.3-3.4,13-3.4C219.5,49.8,223.8,50.9,227.8,53.2z M204.3,57
			c-3.2,1.8-5.8,4.3-7.7,7.5c-1.9,3.2-2.8,6.6-2.8,10.4c0,3.8,0.9,7.3,2.8,10.5c1.9,3.2,4.4,5.8,7.7,7.6c3.2,1.9,6.7,2.8,10.5,2.8
			c3.7,0,7.2-0.9,10.4-2.8c3.2-1.9,5.7-4.4,7.6-7.6c1.9-3.2,2.8-6.7,2.8-10.5s-0.9-7.3-2.8-10.4c-1.9-3.2-4.4-5.7-7.6-7.5
			c-3.2-1.8-6.7-2.8-10.4-2.8C211,54.2,207.5,55.1,204.3,57z"/>
		<path id="XMLID_185_" class="st0" d="M251.5,50.2h4.9v45.2h21.9v4.4h-26.8L251.5,50.2L251.5,50.2z"/>
		<path id="XMLID_179_" class="st0" d="M322.1,53.2c3.9,2.2,7.1,5.3,9.4,9.1c2.3,3.8,3.5,8.1,3.5,12.7s-1.1,8.8-3.5,12.7
			c-2.3,3.9-5.4,7-9.4,9.2c-3.9,2.3-8.3,3.4-13,3.4s-9.1-1.1-13-3.4c-3.9-2.3-7.1-5.3-9.4-9.2c-2.3-3.9-3.5-8.1-3.5-12.7
			s1.1-8.8,3.5-12.7c2.3-3.8,5.4-6.9,9.4-9.1c3.9-2.2,8.3-3.4,13-3.4C313.8,49.8,318.1,50.9,322.1,53.2z M298.6,57
			c-3.2,1.8-5.8,4.3-7.7,7.5c-1.9,3.2-2.8,6.6-2.8,10.4c0,3.8,0.9,7.3,2.8,10.5c1.9,3.2,4.4,5.8,7.7,7.6c3.2,1.9,6.7,2.8,10.5,2.8
			c3.7,0,7.2-0.9,10.4-2.8c3.2-1.9,5.7-4.4,7.6-7.6c1.9-3.2,2.8-6.7,2.8-10.5s-0.9-7.3-2.8-10.4c-1.9-3.2-4.4-5.7-7.6-7.5
			c-3.2-1.8-6.7-2.8-10.4-2.8C305.3,54.2,301.8,55.1,298.6,57z"/>
		<path id="XMLID_178_" class="st0" d="M381.8,50.2h4.8v49.7h-5.2l-30.8-42.1v42.1h-4.9V50.2h5.2l30.8,42.1V50.2z"/>
		<path id="XMLID_176_" class="st0" d="M402.3,50.2h4.9v49.7h-4.9V50.2z"/>
		<path id="XMLID_175_" class="st0" d="M422.8,50.2h33.3v4.4h-28.4v17.7h25.4v4.4h-25.4v18.7H457v4.4h-34.2V50.2z"/>
		<path id="XMLID_174_" class="st0" d="M489.9,55.4c-2.4-0.7-4.7-1-6.8-1c-3.4,0-6.1,0.7-8.2,2c-2,1.3-3.1,3.2-3.1,5.5
			c0,2,0.5,3.7,1.7,5c1.1,1.3,2.5,2.3,4.2,3c1.6,0.7,3.9,1.5,6.8,2.4c3.3,1,6.1,2,8.1,2.9s3.8,2.4,5.2,4.2c1.4,1.8,2.1,4.3,2.1,7.3
			c0,2.6-0.7,5-2.2,7s-3.6,3.6-6.3,4.7c-2.7,1.1-5.8,1.6-9.3,1.6c-3.4,0-6.8-0.7-10.1-2c-3.3-1.4-6.1-3.2-8.5-5.5l2.3-4
			c2.2,2.2,4.8,3.9,7.7,5.1c2.9,1.2,5.8,1.8,8.7,1.8c3.8,0,6.8-0.7,9-2.3c2.2-1.5,3.3-3.6,3.3-6.2c0-2.1-0.5-3.8-1.7-5.1
			c-1.1-1.3-2.5-2.3-4.2-3c-1.6-0.7-4-1.5-7-2.5c-3.3-1-6.1-2-8.1-2.9c-2-0.9-3.8-2.3-5.2-4.1c-1.4-1.8-2.1-4.2-2.1-7.1
			c0-2.5,0.7-4.7,2.1-6.6c1.4-1.9,3.4-3.3,6-4.4c2.5-1,5.5-1.5,8.9-1.5c2.7,0,5.4,0.4,8.1,1.2c2.7,0.8,5.1,1.9,7.2,3.2l-2.1,4.2
			C494.6,57.1,492.3,56.1,489.9,55.4z"/>
	</g>
	<path id="XMLID_169_" class="st0" d="M104.7,39.7L60.6,14c-3.4-2-7.7-2-11.1,0L5.5,39.7c-3.4,2-5.5,5.6-5.5,9.5v51.5
		c0,3.9,2.1,7.5,5.5,9.5L49.5,136c3.4,2,7.7,2,11.1,0l44.1-25.7c3.4-2,5.5-5.6,5.5-9.5V49.3C110.1,45.3,108.1,41.7,104.7,39.7z
		 M55.1,108.5c-18.5,0-33.6-15-33.6-33.5s15-33.5,33.6-33.5c17.8,0,32.4,13.8,33.5,31.3c-24.8-0.3-30.2-6.1-33.5-17.9
		C51.4,68.3,48.4,71.3,35,75c13.4,3.7,16.4,6.7,20.1,20.1c3.3-11.8,8.7-17.7,33.5-17.9C87.5,94.7,72.9,108.5,55.1,108.5z"/>
</g>
</svg>
