<?xml version="1.0" encoding="utf-8"?>
<!-- Generator: Adobe Illustrator 21.0.1, SVG Export Plug-In . SVG Version: 6.00 Build 0)  -->
<svg version="1.1" id="Layer_1" xmlns="http://www.w3.org/2000/svg" xmlns:xlink="http://www.w3.org/1999/xlink" x="0px" y="0px"
	 width="725px" height="141px" viewBox="0 0 725 141" enable-background="new 0 0 725 141" xml:space="preserve">
<path id="WEEKEND" fill="#FFFFFF" d="M91,45.1c-2.2,7.2-4.5,14.8-6.6,21.9h-0.2c-2.2-7.4-4.4-14.4-6.7-21.8L63.1,0h-8.1L40.6,45.1
	C38.3,52.5,36,59.9,33.9,67h-0.2c-2.1-7.2-4.4-14.8-6.6-21.8L12.9,0H1.2l26.2,83.5h12l13.4-42.3c2.1-6.6,4.1-13.2,5.9-19.5h0.2
	c1.9,6.3,3.8,12.8,5.9,19.4l13.5,42.5H90L116.2,0H105L91,45.1z M166.6,44.9h32.9v-9.6h-32.9V9.9h37.6V0h-48.6v83.5h49.7v-9.9h-38.6
	V44.9z M258,44.9h32.9v-9.6H258V9.9h37.6V0h-48.6v83.5h49.7v-9.9H258V44.9z M400.1,0h-13.7l-36.8,38l-0.2-0.1V0h-11v83.5h11v-43
	l0.2-0.1l39.3,43.2h14.4l-41.1-44.8L400.1,0z M452.2,44.9h32.9v-9.6h-32.9V9.9h37.6V0h-48.6v83.5h49.7v-9.9h-38.6V44.9z M592.8,42
	c0,8.1,0.1,16.5,0.2,23.8l-0.2,0.1c-4.8-6.6-9.7-13.2-14.5-19.5L543,0h-10.5v83.5h10.7v-42c0-8.1-0.1-16.5-0.2-23.8l0.2-0.1
	c4.8,6.6,9.7,13.2,14.5,19.5L593,83.5h10.5V0h-10.7V42z M704.5,6.8C696,1.7,685.9,0,674.7,0h-23.1v83.5h20.4
	c14.5,0,25.7-2.2,34.7-8.4c10.7-7.5,16.7-19.8,16.7-33.7C723.3,26.9,716.6,14.1,704.5,6.8z M698.7,68.1c-6.7,4.3-14.9,5.5-25,5.5
	h-11V9.9h10.8c9.1,0,18,0.9,25.4,5.8c7.6,5,13.5,14,13.5,26.1C712.3,53.5,706.7,63,698.7,68.1z"/>
<path fill-rule="evenodd" clip-rule="evenodd" fill="#E19B2C" d="M725,129.4V141H0v-11.5H725z"/>
</svg>
