<svg xmlns="http://www.w3.org/2000/svg" preserveAspectRatio="xMidYMid" width="968" height="993.03" viewBox="0 0 968 993.03"><defs><style>.cls-1 { fill: #f58927; fill-rule: evenodd; }</style></defs><path d="M940.2 308.344L640.255 24.289C616.929 2.27 583.516-5.509 552.851 3.941L158.088 126.264c-30.246 9.349-53.392 34.337-60.645 65.421L2.36 599.209c-7.253 31.085 2.494 63.532 25.441 85.458l299.945 284.06c23.323 22.019 56.736 29.798 87.404 20.348l394.763-122.329c30.245-9.344 53.389-34.331 60.642-65.416l95.084-407.524c7.252-31.085-2.492-63.528-25.439-85.462zm-517.831 453.59c-146.116-34.016-236.941-180.458-202.755-326.978C253.8 288.438 399.895 197.148 546.198 231.208c140.263 32.654 229.479 168.935 206.022 309.561-194.667-47.72-226.961-103.803-230.789-203.413-54.026 99.334-83.151 117.529-195.911 122.256 99.05 54.034 117.12 83.219 121.614 196.179 47.521-87.658 101.309-123.698 297.037-80.526-41.2 136.492-181.539 219.323-321.802 186.669z" class="cls-1"/></svg>