<svg xmlns="http://www.w3.org/2000/svg" preserveAspectRatio="xMidYMid" width="67" height="75" viewBox="0 0 67 75"><defs><style>.cls-1 { stroke: #fff; stroke-width: 3px; fill: none; } .cls-1, .cls-2 { fill-rule: evenodd; } .cls-2 { fill: #fff; }</style></defs><path d="M62.326 17.16L36.721 2.358c-1.99-1.146-4.453-1.146-6.443 0L4.672 17.16C2.71 18.292 1.5 20.391 1.5 22.656v29.687c0 2.265 1.21 4.35 3.172 5.496l25.606 14.802c1.99 1.146 4.453 1.146 6.443 0l25.605-14.802c1.962-1.133 3.173-3.231 3.173-5.496V22.656c0-2.265-1.211-4.35-3.173-5.496z" class="cls-1"/><path d="M32 42.712L20 30.907l2.264-2.227L32 38.258l9.736-9.578L44 30.907 32 42.712z" class="cls-2"/></svg>