<svg id="Layer_1" xmlns="http://www.w3.org/2000/svg" viewBox="12 -12 48 48"><style>.st0{display:none;fill:#CDCCCC;} .st1{fill:#CCCCCC;}</style><path id="XMLID_818_" class="st0" d="M71.2-31.1C69-32.9 66.6-34 64.1-34H47.9c-2.5 0-4.9 1.1-7.1 2.9l-5.3 4.4c-1.7 1.4-1.7 3.9-.1 5.3l5.4 4.9c2.2 1.9 4.6 3.5 7.1 3.5h16.2c2.5 0 4.9-1.6 7.2-3.4l5.4-4.7c1.6-1.4 1.6-3.9 0-5.3l-5.5-4.7zm-9.4 10.3C60.6-19 58.6-18 56.4-18h-.8c-2.2 0-4.2-1-5.4-2.8-1.3-2-1.3-4.4 0-6.4 1.2-1.9 3.2-2.7 5.4-2.7h.8c2.2 0 4.2.9 5.4 2.7 1.2 2 1.2 4.3 0 6.4z"/><path id="XMLID_743_" class="st1" d="M46.4 10.3L43.7 8c-1.1-1-2.4-1.5-3.6-1.5H32c-1.3 0-2.5.5-3.6 1.5l-2.7 2.2c-.8.7-.9 2-.1 2.7l2.7 2.7c1.1.9 2.4 2 3.6 2H40c1.3 0 2.5-1 3.6-2l2.7-2.5c.9-.8.9-2.2.1-2.8zm-2.2 2l-2 1.7c-.9.7-2 1.5-3.3 1.5H33c-1.3 0-2.4-.8-3.3-1.5l-2-1.8c-.4-.4-.5-1-.1-1.4s1-.4 1.5-.1l2 1.7c.5.4 1.3 1 1.9 1h6c.6 0 1.4-.6 2-1l1.9-1.7c.4-.4 1.1-.3 1.4.1.4.5.3 1.1-.1 1.5z"/></svg>