<svg id="Layer_1" xmlns="http://www.w3.org/2000/svg" viewBox="0 0 16 16"><style>.st0{fill:#160144;} .st1{fill:url(#XMLID_41_);} .st2{fill:url(#XMLID_42_);}</style><g id="XMLID_129_"><path id="XMLID_136_" class="st0" d="M14.4 3.5L8.7.2c-.4-.3-1-.3-1.4 0L1.6 3.5c-.4.2-.7.7-.7 1.2v6.6c0 .5.3 1 .7 1.2l5.6 3.3c.4.3 1 .3 1.4 0l5.6-3.3c.4-.3.7-.7.7-1.2V4.7c.2-.5-.1-1-.5-1.2zM8 12.3c-2.4 0-4.3-1.9-4.3-4.3S5.6 3.7 8 3.7c2.3 0 4.1 1.8 4.3 4-3.2 0-3.9-.8-4.3-2.3-.5 1.7-.9 2.1-2.6 2.6 1.7.5 2.1.9 2.6 2.6.4-1.5 1.1-2.3 4.3-2.3-.2 2.2-2 4-4.3 4z"/><linearGradient id="XMLID_41_" gradientUnits="userSpaceOnUse" x1="4.441" y1="14.1643" x2="11.559" y2="1.8357"><stop offset="0" stop-color="#D84700" stop-opacity=".75"/><stop offset="1" stop-color="#160144" stop-opacity="0"/></linearGradient><path id="XMLID_133_" class="st1" d="M14.4 3.5L8.7.2c-.4-.3-1-.3-1.4 0L1.6 3.5c-.4.2-.7.7-.7 1.2v6.6c0 .5.3 1 .7 1.2l5.6 3.3c.4.3 1 .3 1.4 0l5.6-3.3c.4-.3.7-.7.7-1.2V4.7c.2-.5-.1-1-.5-1.2zM8 12.3c-2.4 0-4.3-1.9-4.3-4.3S5.6 3.7 8 3.7c2.3 0 4.1 1.8 4.3 4-3.2 0-3.9-.8-4.3-2.3-.5 1.7-.9 2.1-2.6 2.6 1.7.5 2.1.9 2.6 2.6.4-1.5 1.1-2.3 4.3-2.3-.2 2.2-2 4-4.3 4z"/><linearGradient id="XMLID_42_" gradientUnits="userSpaceOnUse" x1="4.441" y1="14.1643" x2="11.559" y2="1.8357"><stop offset="0" stop-color="#FFAE00"/><stop offset=".04171419" stop-color="#FFA000" stop-opacity=".9583"/><stop offset=".1259" stop-color="#FF8A00" stop-opacity=".8741"/><stop offset=".2253" stop-color="#FF7900" stop-opacity=".7747"/><stop offset=".3483" stop-color="#FF6E00" stop-opacity=".6517"/><stop offset=".5209" stop-color="#FF6700" stop-opacity=".4791"/><stop offset="1" stop-color="#FF6500" stop-opacity="0"/></linearGradient><path id="XMLID_130_" class="st2" d="M14.4 3.5L8.7.2c-.4-.3-1-.3-1.4 0L1.6 3.5c-.4.2-.7.7-.7 1.2v6.6c0 .5.3 1 .7 1.2l5.6 3.3c.4.3 1 .3 1.4 0l5.6-3.3c.4-.3.7-.7.7-1.2V4.7c.2-.5-.1-1-.5-1.2zM8 12.3c-2.4 0-4.3-1.9-4.3-4.3S5.6 3.7 8 3.7c2.3 0 4.1 1.8 4.3 4-3.2 0-3.9-.8-4.3-2.3-.5 1.7-.9 2.1-2.6 2.6 1.7.5 2.1.9 2.6 2.6.4-1.5 1.1-2.3 4.3-2.3-.2 2.2-2 4-4.3 4z"/></g></svg>