<svg xmlns="http://www.w3.org/2000/svg" xmlns:xlink="http://www.w3.org/1999/xlink" preserveAspectRatio="xMidYMid" width="180" height="45.031" viewBox="0 0 180 45.031">
  <defs>
    <style>
      .cls-1 {
        fill: #fff;
        fill-rule: evenodd;
      }
    </style>
  </defs>
  <path d="M176.374,15.430 C175.513,15.178 174.687,15.053 173.915,15.053 C172.695,15.053 171.708,15.304 170.954,15.789 C170.218,16.274 169.841,16.939 169.841,17.766 C169.841,18.502 170.038,19.095 170.451,19.562 C170.864,20.029 171.367,20.389 171.959,20.658 C172.551,20.928 173.377,21.215 174.418,21.538 C175.620,21.897 176.608,22.257 177.343,22.598 C178.079,22.940 178.708,23.461 179.228,24.125 C179.749,24.790 180.000,25.671 180.000,26.766 C180.000,27.718 179.731,28.563 179.192,29.300 C178.654,30.036 177.900,30.593 176.931,31.006 C175.961,31.401 174.849,31.599 173.574,31.599 C172.336,31.599 171.115,31.348 169.931,30.863 C168.746,30.359 167.723,29.713 166.880,28.886 L167.705,27.431 C168.513,28.222 169.428,28.832 170.487,29.282 C171.546,29.731 172.587,29.946 173.610,29.946 C174.974,29.946 176.051,29.677 176.859,29.120 C177.667,28.563 178.061,27.826 178.061,26.874 C178.061,26.120 177.864,25.509 177.451,25.024 C177.038,24.539 176.536,24.179 175.943,23.928 C175.351,23.676 174.508,23.371 173.431,23.030 C172.228,22.652 171.241,22.293 170.523,21.970 C169.787,21.628 169.159,21.143 168.656,20.478 C168.154,19.814 167.885,18.969 167.885,17.909 C167.885,17.011 168.136,16.202 168.656,15.520 C169.159,14.837 169.877,14.316 170.810,13.939 C171.726,13.580 172.803,13.382 174.005,13.382 C174.974,13.382 175.961,13.526 176.931,13.813 C177.918,14.101 178.779,14.496 179.533,14.963 L178.761,16.472 C178.044,16.041 177.236,15.681 176.374,15.430 ZM152.216,13.580 L164.187,13.580 L164.187,15.160 L153.975,15.160 L153.975,21.556 L163.110,21.556 L163.110,23.138 L153.975,23.138 L153.975,29.874 L164.510,29.874 L164.510,31.455 L152.216,31.455 L152.216,13.580 ZM144.839,13.580 L146.598,13.580 L146.598,31.473 L144.839,31.473 L144.839,13.580 ZM126.244,16.310 L126.244,31.473 L124.485,31.473 L124.485,13.580 L126.352,13.580 L137.444,28.743 L137.444,13.580 L139.185,13.580 L139.185,31.473 L137.318,31.473 L126.244,16.310 ZM115.942,30.395 C114.524,31.222 112.962,31.617 111.257,31.617 C109.552,31.617 107.991,31.204 106.573,30.395 C105.155,29.569 104.024,28.473 103.180,27.071 C102.337,25.671 101.924,24.143 101.924,22.490 C101.924,20.838 102.337,19.311 103.180,17.927 C104.024,16.544 105.137,15.448 106.573,14.640 C107.991,13.831 109.552,13.418 111.257,13.418 C112.962,13.418 114.524,13.831 115.942,14.640 C117.360,15.448 118.490,16.544 119.334,17.927 C120.178,19.311 120.590,20.838 120.590,22.490 C120.590,24.143 120.178,25.671 119.334,27.071 C118.490,28.473 117.378,29.587 115.942,30.395 ZM117.773,18.718 C117.090,17.568 116.175,16.669 115.026,16.005 C113.878,15.340 112.621,14.999 111.275,14.999 C109.911,15.017 108.655,15.340 107.488,16.005 C106.321,16.669 105.406,17.568 104.724,18.718 C104.042,19.867 103.701,21.107 103.701,22.473 C103.701,23.838 104.042,25.096 104.724,26.264 C105.406,27.431 106.321,28.347 107.488,29.012 C108.655,29.695 109.911,30.018 111.275,30.018 C112.621,30.018 113.878,29.677 115.026,29.012 C116.175,28.329 117.090,27.413 117.773,26.264 C118.454,25.096 118.796,23.838 118.796,22.473 C118.796,21.107 118.454,19.850 117.773,18.718 ZM90.545,13.580 L92.304,13.580 L92.304,29.874 L100.183,29.874 L100.183,31.455 L90.545,31.455 L90.545,13.580 ZM82.001,30.395 C80.583,31.222 79.022,31.617 77.317,31.617 C75.611,31.617 74.050,31.204 72.632,30.395 C71.214,29.569 70.083,28.473 69.240,27.071 C68.396,25.671 67.983,24.143 67.983,22.490 C67.983,20.838 68.396,19.311 69.240,17.927 C70.083,16.544 71.196,15.448 72.632,14.640 C74.050,13.831 75.611,13.418 77.317,13.418 C79.022,13.418 80.583,13.831 82.001,14.640 C83.419,15.448 84.550,16.544 85.393,17.927 C86.237,19.311 86.650,20.838 86.650,22.490 C86.650,24.143 86.237,25.671 85.393,27.071 C84.550,28.473 83.437,29.587 82.001,30.395 ZM83.832,18.718 C83.150,17.568 82.234,16.669 81.086,16.005 C79.937,15.340 78.681,14.999 77.335,14.999 C75.970,15.017 74.714,15.340 73.547,16.005 C72.381,16.669 71.465,17.568 70.783,18.718 C70.101,19.867 69.760,21.107 69.760,22.473 C69.760,23.838 70.101,25.096 70.783,26.264 C71.465,27.431 72.381,28.347 73.547,29.012 C74.714,29.695 75.970,30.018 77.335,30.018 C78.681,30.018 79.937,29.677 81.086,29.012 C82.234,28.329 83.150,27.413 83.832,26.264 C84.514,25.096 84.855,23.838 84.855,22.473 C84.855,21.107 84.514,19.850 83.832,18.718 ZM56.048,28.976 C57.196,29.659 58.471,29.982 59.853,29.982 C60.840,29.982 61.809,29.785 62.742,29.407 C63.676,29.030 64.519,28.491 65.255,27.808 L66.332,28.958 C65.453,29.785 64.430,30.431 63.281,30.899 C62.132,31.384 60.965,31.617 59.781,31.617 C58.094,31.617 56.550,31.204 55.132,30.395 C53.714,29.569 52.602,28.473 51.776,27.071 C50.950,25.671 50.537,24.143 50.537,22.490 C50.537,20.838 50.950,19.311 51.794,17.927 C52.637,16.544 53.750,15.448 55.186,14.640 C56.604,13.831 58.166,13.418 59.853,13.418 C61.055,13.418 62.240,13.651 63.353,14.101 C64.483,14.550 65.471,15.178 66.314,15.987 L65.273,17.209 C64.537,16.508 63.694,15.969 62.760,15.574 C61.827,15.178 60.858,14.981 59.853,14.981 C58.471,14.981 57.214,15.322 56.048,15.987 C54.899,16.652 53.984,17.568 53.320,18.718 C52.637,19.867 52.314,21.125 52.314,22.490 C52.314,23.856 52.655,25.114 53.320,26.245 C54.001,27.395 54.899,28.294 56.048,28.976 ZM21.822,44.463 C20.589,45.179 19.063,45.179 17.830,44.463 L1.966,35.212 C0.750,34.495 0.000,33.192 0.000,31.777 L0.000,13.222 C0.000,11.807 0.750,10.495 1.966,9.787 L17.830,0.536 C19.063,-0.180 20.589,-0.180 21.822,0.536 L37.686,9.787 C38.901,10.504 39.651,11.807 39.651,13.222 L39.651,31.777 C39.651,33.192 38.901,34.504 37.686,35.212 L21.822,44.463 ZM19.839,15.250 C21.011,19.514 22.977,21.611 31.892,21.714 C31.486,15.406 26.245,10.418 19.839,10.418 C13.157,10.418 7.751,15.828 7.751,22.500 C7.751,29.170 13.165,34.582 19.839,34.582 C26.245,34.582 31.486,29.593 31.892,23.285 C22.977,23.388 21.011,25.485 19.839,29.749 C18.502,24.916 17.425,23.837 12.588,22.500 C17.425,21.162 18.502,20.083 19.839,15.250 Z" class="cls-1"/>
</svg>
