<svg xmlns="http://www.w3.org/2000/svg" xmlns:xlink="http://www.w3.org/1999/xlink" preserveAspectRatio="xMidYMid" width="30" height="30" viewBox="0 0 30 30">
  <defs>
    <style>
      .cls-1 {
        fill: #9a52b8;
        fill-rule: evenodd;
      }
    </style>
  </defs>
  <path d="M28.999,29.999 L22.173,29.999 L0.999,29.999 C0.447,29.999 -0.001,29.551 -0.001,28.999 L-0.001,5.998 C-0.001,5.446 0.447,4.999 0.999,4.999 L3.999,4.999 L3.999,7.998 L5.999,7.998 L5.999,4.999 L5.999,-0.002 L9.999,-0.002 L9.999,4.999 L20.000,4.999 L20.000,7.998 L21.999,7.998 L21.999,4.999 L21.999,-0.002 L25.999,-0.002 L25.999,4.999 L28.999,4.999 C29.552,4.999 29.999,5.446 29.999,5.998 L29.999,22.173 L29.999,28.999 C29.999,29.551 29.552,29.999 28.999,29.999 ZM9.999,12.999 L4.999,12.999 L4.999,17.999 L9.999,17.999 L9.999,12.999 ZM9.999,20.998 L4.999,20.998 L4.999,25.998 L9.999,25.998 L9.999,20.998 ZM17.999,12.999 L11.999,12.999 L11.999,17.999 L17.999,17.999 L17.999,12.999 ZM17.999,20.998 L11.999,20.998 L11.999,25.998 L17.999,25.998 L17.999,20.998 ZM20.000,12.999 L20.000,17.999 L25.000,17.999 L25.000,12.999 L20.000,12.999 Z" class="cls-1"/>
</svg>
