<svg xmlns="http://www.w3.org/2000/svg" xmlns:xlink="http://www.w3.org/1999/xlink" preserveAspectRatio="xMidYMid" width="26" height="29.906" viewBox="0 0 26 29.906">
  <defs>
    <style>
      .cls-1 {
        fill: #9a52b8;
        fill-rule: evenodd;
      }
    </style>
  </defs>
  <path d="M13.000,29.909 C5.820,29.909 -0.000,29.459 -0.000,28.902 C-0.000,28.347 5.820,27.896 13.000,27.896 C20.179,27.896 26.000,28.347 26.000,28.902 C26.000,29.459 20.179,29.909 13.000,29.909 ZM14.814,26.055 C14.089,27.595 11.911,27.595 11.186,26.055 L5.193,13.321 C5.066,13.051 5.000,12.755 5.000,12.456 L5.000,5.316 C5.000,4.577 5.401,3.897 6.045,3.544 L12.038,0.251 C12.637,-0.079 13.362,-0.079 13.962,0.251 L19.955,3.544 C20.599,3.897 21.000,4.577 21.000,5.316 L21.000,12.456 C21.000,12.755 20.934,13.051 20.807,13.321 L14.814,26.055 ZM13.000,5.759 C11.343,5.759 10.000,7.111 10.000,8.778 C10.000,10.445 11.343,11.797 13.000,11.797 C14.657,11.797 16.000,10.445 16.000,8.778 C16.000,7.111 14.657,5.759 13.000,5.759 Z" class="cls-1"/>
</svg>
