<svg xmlns="http://www.w3.org/2000/svg" xmlns:xlink="http://www.w3.org/1999/xlink" preserveAspectRatio="xMidYMid" width="30" height="26.594" viewBox="0 0 30 26.594">
  <defs>
    <style>
      .cls-1 {
        fill: #9a52b8;
        fill-rule: evenodd;
      }
    </style>
  </defs>
  <path d="M16.776,25.918 L28.862,16.270 C29.581,15.696 30.000,14.830 30.000,13.915 L30.000,5.945 C30.000,5.056 29.606,4.213 28.922,3.638 L25.461,0.728 C24.568,-0.022 23.319,-0.200 22.249,0.272 L15.000,3.466 L7.750,0.272 C6.680,-0.200 5.432,-0.022 4.538,0.728 L1.077,3.638 C0.394,4.213 -0.000,5.056 -0.000,5.945 L-0.000,13.934 C-0.000,14.838 0.408,15.695 1.113,16.269 L12.925,25.899 C14.042,26.809 15.650,26.818 16.776,25.918 Z" class="cls-1"/>
</svg>
